<svg id="svg" version="1.1" xmlns="http://www.w3.org/2000/svg" xmlns:xlink="http://www.w3.org/1999/xlink" width="400" height="136.95652173913044" viewBox="0, 0, 400,136.95652173913044"><g id="svgg"><path id="path0" d="M94.833 100.250 L 94.833 133.500 125.000 133.500 L 155.167 133.500 155.125 100.292 L 155.083 67.083 124.958 67.041 L 94.833 66.999 94.833 100.250 " stroke="none" fill="#040404" fill-rule="evenodd"></path><path id="path1" d="M116.833 16.292 C 116.833 17.094,116.759 21.425,116.668 25.917 C 116.493 34.657,116.129 66.689,116.205 66.753 C 116.230 66.773,118.500 65.519,121.250 63.964 C 124.000 62.410,126.737 60.872,127.333 60.546 C 130.312 58.916,130.917 58.578,138.000 54.582 C 141.438 52.643,144.700 50.809,145.250 50.507 C 145.800 50.205,146.746 49.686,147.353 49.354 C 150.875 47.425,161.493 41.403,161.495 41.333 C 161.497 41.287,160.055 40.392,158.291 39.343 C 151.114 35.078,148.441 33.485,146.038 32.044 C 145.696 31.840,144.892 31.367,144.250 30.995 C 143.608 30.623,142.783 30.135,142.417 29.912 C 142.050 29.688,141.200 29.185,140.527 28.794 C 139.854 28.403,139.179 28.008,139.025 27.917 C 138.872 27.825,137.623 27.084,136.248 26.269 C 134.874 25.455,133.225 24.472,132.583 24.085 C 131.942 23.698,130.104 22.610,128.500 21.668 C 126.896 20.725,125.321 19.787,125.000 19.583 C 124.679 19.379,123.292 18.555,121.917 17.751 C 120.542 16.948,119.154 16.123,118.833 15.919 C 117.852 15.293,117.049 14.833,116.939 14.833 C 116.881 14.833,116.833 15.490,116.833 16.292 M285.569 54.770 C 285.149 55.676,284.652 56.754,284.466 57.167 C 284.280 57.579,283.865 58.479,283.544 59.167 C 283.223 59.854,282.678 61.054,282.333 61.833 C 281.743 63.166,281.402 63.906,279.814 67.302 C 279.458 68.063,279.167 68.713,279.167 68.746 C 279.167 68.778,278.785 69.617,278.319 70.611 C 277.000 73.422,276.772 73.920,275.616 76.500 C 275.021 77.829,274.114 79.804,273.601 80.888 C 273.087 81.973,272.667 82.887,272.667 82.920 C 272.667 82.953,272.359 83.641,271.984 84.448 C 271.609 85.256,271.129 86.292,270.919 86.750 C 270.536 87.586,270.003 88.744,269.001 90.917 C 268.705 91.558,268.172 92.705,267.816 93.465 C 266.865 95.499,266.854 95.601,267.520 96.206 C 270.262 98.695,271.942 100.235,273.004 101.235 C 273.694 101.885,275.044 103.126,276.004 103.993 C 276.964 104.861,278.275 106.061,278.917 106.660 C 279.559 107.260,280.872 108.468,281.834 109.347 C 282.796 110.225,285.121 112.356,287.000 114.083 C 288.879 115.810,291.202 117.942,292.163 118.820 C 293.123 119.698,294.474 120.942,295.166 121.583 C 295.857 122.225,297.242 123.500,298.243 124.417 C 299.243 125.333,300.328 126.329,300.652 126.628 C 301.367 127.287,300.778 127.519,306.224 124.436 C 308.713 123.027,311.162 121.650,311.667 121.376 C 312.171 121.102,312.958 120.668,313.417 120.412 C 313.875 120.155,314.512 119.800,314.833 119.622 C 317.606 118.088,341.782 104.420,341.888 104.327 C 341.964 104.261,341.824 103.204,341.576 101.978 C 341.329 100.753,340.992 99.075,340.829 98.250 C 340.666 97.425,340.373 95.962,340.179 95.000 C 339.985 94.037,339.684 92.537,339.510 91.667 C 339.336 90.796,338.993 89.108,338.748 87.917 C 338.504 86.725,338.161 85.037,337.988 84.167 C 337.814 83.296,337.520 81.833,337.333 80.917 C 337.147 80.000,336.854 78.537,336.683 77.667 C 336.512 76.796,336.071 74.583,335.703 72.750 C 335.335 70.917,334.997 69.229,334.951 69.000 C 334.905 68.771,334.670 67.646,334.429 66.500 C 333.993 64.426,333.498 61.936,333.094 59.788 C 332.818 58.317,333.306 58.484,327.333 57.820 C 325.729 57.642,323.179 57.353,321.667 57.179 C 320.154 57.005,317.492 56.706,315.750 56.516 C 314.008 56.326,312.096 56.097,311.500 56.006 C 310.904 55.915,309.517 55.760,308.417 55.661 C 307.317 55.563,306.299 55.448,306.154 55.406 C 305.898 55.331,302.781 54.974,296.750 54.329 C 295.100 54.152,293.600 53.972,293.416 53.928 C 293.233 53.884,291.920 53.732,290.500 53.590 C 289.079 53.448,287.561 53.285,287.125 53.228 L 286.334 53.124 285.569 54.770 M61.884 81.899 C 61.630 82.184,60.671 83.312,59.753 84.405 C 58.184 86.274,57.522 87.059,53.473 91.846 C 52.587 92.893,51.357 94.350,50.741 95.083 C 49.349 96.739,48.108 98.181,47.292 99.091 C 46.501 99.972,46.385 99.367,48.435 105.031 C 49.408 107.718,50.387 110.442,50.612 111.083 C 50.836 111.725,51.125 112.550,51.253 112.917 C 51.382 113.283,51.683 114.108,51.923 114.750 C 52.164 115.392,52.498 116.329,52.667 116.833 C 52.835 117.337,53.172 118.275,53.414 118.917 C 53.657 119.558,53.964 120.421,54.097 120.833 C 54.421 121.836,54.972 122.999,55.126 123.003 C 55.312 123.009,58.775 123.606,61.417 124.088 C 63.638 124.494,64.783 124.699,69.167 125.479 C 70.221 125.666,72.133 126.012,73.417 126.247 C 77.649 127.021,78.869 127.198,78.995 127.056 C 79.497 126.493,83.562 121.697,85.810 119.015 C 86.393 118.319,87.229 117.337,87.667 116.833 C 88.105 116.329,88.940 115.348,89.523 114.652 C 93.785 109.570,94.561 108.685,94.689 108.764 C 94.768 108.813,94.833 108.724,94.833 108.565 C 94.833 108.407,94.784 108.327,94.723 108.388 C 94.578 108.533,94.499 108.323,90.123 96.173 C 86.496 86.102,86.358 85.758,85.895 85.630 C 85.455 85.508,83.298 85.109,78.833 84.326 C 77.871 84.157,76.221 83.860,75.167 83.667 C 74.112 83.473,72.425 83.170,71.417 82.993 C 70.408 82.816,68.533 82.480,67.250 82.245 C 65.967 82.011,64.338 81.721,63.631 81.600 L 62.346 81.381 61.884 81.899 " stroke="none" fill="#e41c14" fill-rule="evenodd"></path><path id="path2" d="M0.000 63.583 L 0.000 127.167 3.250 127.167 C 5.306 127.167,6.500 127.228,6.500 127.333 C 6.500 127.439,5.306 127.500,3.250 127.500 L 0.000 127.500 0.000 132.167 L 0.000 136.833 4.583 136.833 L 9.167 136.833 9.167 133.407 C 9.167 131.165,9.224 130.016,9.333 130.083 C 9.435 130.146,9.500 131.474,9.500 133.510 L 9.500 136.833 199.917 136.833 L 390.333 136.833 390.333 133.510 C 390.333 131.474,390.398 130.146,390.500 130.083 C 390.609 130.016,390.667 131.165,390.667 133.407 L 390.667 136.833 395.333 136.833 L 400.000 136.833 400.000 132.167 L 400.000 127.500 398.458 127.500 L 396.917 127.499 396.969 129.333 C 397.006 130.637,396.965 131.167,396.828 131.167 C 396.580 131.167,392.013 128.336,385.583 124.197 C 383.603 122.922,382.512 122.221,377.750 119.167 C 376.558 118.402,375.077 117.452,374.458 117.055 C 373.840 116.658,372.827 116.009,372.208 115.612 C 371.590 115.215,370.146 114.288,369.000 113.553 C 367.854 112.818,364.479 110.656,361.500 108.749 C 358.521 106.841,355.596 104.964,355.000 104.576 C 349.943 101.284,340.587 95.357,340.533 95.411 C 340.496 95.448,340.595 96.102,340.754 96.864 C 341.050 98.285,341.404 100.075,341.926 102.792 C 342.089 103.640,342.191 104.363,342.153 104.399 C 342.084 104.465,330.088 111.252,328.333 112.218 C 327.829 112.496,327.117 112.897,326.750 113.109 C 326.383 113.322,325.896 113.588,325.667 113.702 C 325.438 113.815,324.780 114.191,324.205 114.537 C 323.631 114.883,323.130 115.167,323.092 115.167 C 323.054 115.167,318.179 117.904,312.258 121.250 C 306.337 124.596,301.416 127.333,301.321 127.333 C 301.227 127.333,299.710 126.008,297.950 124.389 C 296.190 122.770,293.964 120.726,293.003 119.847 C 292.042 118.969,290.767 117.794,290.169 117.237 C 289.572 116.679,288.071 115.298,286.833 114.167 C 283.693 111.297,281.141 108.953,279.668 107.583 C 278.977 106.942,277.626 105.698,276.665 104.820 C 273.430 101.866,268.424 97.279,267.534 96.453 L 266.651 95.633 265.472 97.692 C 250.089 124.544,216.347 134.944,188.454 121.431 C 170.574 112.769,157.792 94.911,155.639 75.583 C 155.445 73.835,155.406 77.358,155.333 103.583 L 155.250 133.583 124.958 133.625 L 94.667 133.668 94.667 121.417 C 94.667 114.679,94.604 109.167,94.528 109.167 C 94.451 109.167,93.870 109.781,93.236 110.531 C 91.476 112.615,89.245 115.244,87.749 117.000 C 86.455 118.518,85.430 119.731,82.339 123.406 C 81.563 124.329,80.753 125.271,80.540 125.500 C 80.326 125.729,79.911 126.233,79.618 126.620 C 79.031 127.391,78.739 127.460,77.333 127.157 C 76.921 127.068,75.758 126.849,74.750 126.671 C 73.742 126.493,71.867 126.155,70.583 125.921 C 69.300 125.687,67.425 125.351,66.417 125.174 C 65.408 124.997,63.721 124.693,62.667 124.500 C 61.612 124.307,59.925 124.005,58.917 123.830 C 55.441 123.225,54.777 123.069,54.649 122.826 C 54.579 122.693,52.745 117.633,50.573 111.583 C 48.401 105.533,46.575 100.492,46.516 100.379 C 46.426 100.210,41.188 108.207,34.667 118.468 C 33.979 119.550,32.885 121.256,32.235 122.259 C 31.584 123.263,30.582 124.815,30.006 125.708 C 29.430 126.602,28.936 127.333,28.908 127.333 C 28.880 127.333,28.195 126.898,27.387 126.367 C 25.548 125.157,5.598 112.345,4.006 111.351 L 2.833 110.619 2.833 68.629 L 2.833 26.639 3.458 27.019 C 3.802 27.228,4.683 27.784,5.417 28.255 C 9.714 31.014,11.718 32.297,12.795 32.981 C 13.461 33.404,14.699 34.200,15.546 34.750 C 16.392 35.300,18.022 36.347,19.167 37.077 C 20.313 37.806,21.962 38.863,22.833 39.426 C 23.704 39.988,26.742 41.934,29.583 43.750 C 32.425 45.566,35.575 47.587,36.583 48.242 C 37.592 48.896,39.821 50.328,41.538 51.424 C 43.255 52.520,45.187 53.754,45.832 54.167 C 46.477 54.579,47.997 55.550,49.210 56.324 C 50.424 57.098,52.129 58.193,53.000 58.756 C 53.871 59.320,57.321 61.529,60.667 63.666 C 64.012 65.802,66.839 67.633,66.948 67.734 C 67.098 67.872,65.849 69.932,61.835 76.167 C 58.914 80.704,55.951 85.317,55.250 86.417 C 54.550 87.517,53.611 88.979,53.164 89.667 C 52.717 90.354,52.045 91.404,51.670 92.000 C 51.296 92.596,50.313 94.126,49.487 95.400 C 47.157 98.993,47.286 98.952,50.518 95.071 C 51.287 94.148,53.529 91.491,55.500 89.168 C 57.471 86.845,59.784 84.113,60.641 83.097 C 61.497 82.081,62.222 81.225,62.252 81.195 C 62.281 81.164,63.137 81.295,64.153 81.486 C 67.180 82.055,69.521 82.482,70.583 82.659 C 71.133 82.751,72.633 83.018,73.917 83.253 C 75.200 83.488,77.112 83.834,78.167 84.021 C 86.235 85.456,86.389 85.487,86.515 85.690 C 86.578 85.792,87.546 88.435,88.666 91.563 C 89.786 94.691,90.847 97.643,91.024 98.122 C 91.492 99.392,91.969 100.705,92.325 101.706 C 92.973 103.530,93.551 105.109,93.836 105.833 C 93.998 106.246,94.182 106.827,94.245 107.125 C 94.608 108.839,94.668 106.259,94.708 87.292 L 94.750 66.917 105.375 66.874 L 116.000 66.831 116.000 62.880 C 116.000 60.707,116.079 54.501,116.175 49.089 C 116.271 43.678,116.404 33.723,116.471 26.967 C 116.538 20.212,116.640 14.637,116.698 14.580 C 116.756 14.522,117.091 14.658,117.443 14.881 C 117.795 15.105,119.396 16.062,121.000 17.008 C 122.604 17.953,125.004 19.375,126.333 20.167 C 127.662 20.959,129.875 22.271,131.250 23.082 C 132.625 23.893,134.837 25.206,136.167 25.999 C 137.496 26.791,139.896 28.216,141.500 29.164 C 144.936 31.195,149.057 33.647,151.796 35.289 C 152.137 35.494,152.942 35.966,153.583 36.339 C 154.225 36.711,154.975 37.151,155.250 37.315 C 158.441 39.225,160.072 40.191,160.854 40.635 L 161.792 41.167 162.795 39.375 C 173.919 19.519,196.122 7.671,218.767 9.508 C 257.113 12.618,282.146 50.156,270.345 86.852 C 270.071 87.705,269.874 88.430,269.908 88.464 C 269.942 88.497,270.022 88.361,270.086 88.159 C 270.149 87.958,270.613 86.929,271.115 85.872 C 271.617 84.815,272.313 83.306,272.661 82.517 C 273.256 81.169,273.588 80.448,275.186 77.032 C 275.542 76.270,275.833 75.620,275.833 75.587 C 275.833 75.554,276.162 74.827,276.564 73.972 C 277.491 71.997,278.172 70.515,279.117 68.417 C 279.871 66.743,280.373 65.652,281.456 63.333 C 281.777 62.646,282.322 61.446,282.667 60.667 C 283.012 59.887,283.556 58.688,283.877 58.000 C 284.610 56.428,285.265 55.001,285.770 53.875 C 286.229 52.852,286.093 52.877,289.250 53.253 C 290.350 53.384,292.637 53.643,294.333 53.829 C 296.029 54.014,297.604 54.204,297.833 54.250 C 298.063 54.296,299.675 54.489,301.417 54.679 C 303.158 54.868,305.821 55.165,307.333 55.339 C 308.846 55.512,311.096 55.767,312.333 55.906 C 313.571 56.044,315.521 56.273,316.667 56.413 C 318.948 56.693,321.688 57.011,326.167 57.515 C 332.205 58.194,332.828 58.273,332.919 58.363 C 332.970 58.414,333.203 59.422,333.437 60.603 C 333.968 63.281,334.442 65.639,334.837 67.583 C 335.005 68.408,335.290 69.833,335.469 70.750 C 336.010 73.516,337.160 79.179,337.416 80.333 C 337.657 81.426,338.040 83.338,338.417 85.333 C 338.658 86.612,339.729 91.889,340.103 93.645 C 340.429 95.174,339.759 96.009,345.931 86.376 C 348.765 81.954,351.421 77.810,351.833 77.168 C 352.246 76.526,353.221 74.990,354.000 73.756 C 354.779 72.521,355.505 71.508,355.614 71.505 C 355.793 71.500,357.394 72.505,364.547 77.109 C 365.850 77.948,367.892 79.256,369.083 80.016 C 371.433 81.516,374.734 83.639,375.667 84.252 C 375.988 84.463,378.238 85.904,380.667 87.456 C 383.096 89.007,385.758 90.714,386.583 91.248 C 387.408 91.781,388.458 92.460,388.917 92.756 C 390.451 93.746,394.905 96.596,395.955 97.260 L 396.993 97.917 396.997 112.542 L 397.000 127.167 398.500 127.167 L 400.000 127.167 400.000 63.583 L 400.000 0.000 200.000 0.000 L 0.000 0.000 0.000 63.583 M157.239 44.019 C 154.954 45.309,152.633 46.610,152.083 46.910 C 151.533 47.209,150.671 47.679,150.167 47.954 C 149.662 48.229,146.063 50.252,142.167 52.449 C 138.271 54.646,134.483 56.769,133.750 57.167 C 132.542 57.822,119.418 65.198,117.417 66.347 L 116.583 66.826 135.855 66.830 L 155.127 66.833 155.240 65.208 C 155.805 57.081,157.790 49.304,160.912 42.987 C 161.239 42.325,161.481 41.759,161.451 41.729 C 161.420 41.698,159.525 42.729,157.239 44.019 " stroke="none" fill="#fbfbfb" fill-rule="evenodd"></path><path id="path3" d="M210.750 9.496 C 175.176 11.809,149.750 44.328,156.275 79.167 C 162.523 112.525,195.776 133.811,228.667 125.504 C 262.137 117.052,281.298 81.558,269.966 49.000 C 261.320 24.162,236.798 7.802,210.750 9.496 M3.000 68.727 L 3.000 110.632 4.625 111.658 C 5.519 112.223,7.337 113.389,8.667 114.250 C 9.996 115.111,11.571 116.124,12.167 116.500 C 12.762 116.877,13.793 117.537,14.456 117.967 C 15.120 118.398,17.107 119.675,18.873 120.806 C 20.639 121.937,23.583 123.830,25.417 125.013 C 27.250 126.195,28.818 127.141,28.901 127.115 C 29.023 127.075,34.542 118.605,37.717 113.583 C 38.123 112.942,39.063 111.479,39.806 110.333 C 40.548 109.188,41.463 107.763,41.838 107.167 C 42.212 106.571,43.471 104.605,44.634 102.797 C 45.798 100.990,49.188 95.722,52.167 91.090 C 55.146 86.459,57.934 82.125,58.363 81.460 C 58.793 80.794,59.476 79.725,59.883 79.083 C 60.289 78.442,61.229 76.979,61.972 75.833 C 62.715 74.688,63.629 73.262,64.002 72.667 C 64.376 72.071,65.205 70.773,65.845 69.782 C 67.199 67.684,67.254 67.952,65.203 66.661 C 64.312 66.100,63.021 65.276,62.333 64.830 C 61.646 64.383,60.596 63.711,60.000 63.336 C 58.656 62.490,54.927 60.096,50.500 57.238 C 49.904 56.854,44.879 53.634,39.333 50.083 C 33.787 46.533,28.758 43.307,28.156 42.914 C 27.555 42.522,26.205 41.656,25.156 40.991 C 24.108 40.325,22.762 39.467,22.167 39.084 C 21.571 38.701,20.558 38.050,19.917 37.638 C 19.275 37.225,18.112 36.478,17.333 35.976 C 16.554 35.475,14.284 34.019,12.288 32.741 C 10.293 31.463,7.518 29.682,6.122 28.785 C 4.726 27.887,3.452 27.078,3.292 26.987 C 3.014 26.830,3.000 28.865,3.000 68.727 M354.878 72.542 C 354.510 73.115,353.103 75.308,351.751 77.417 C 350.399 79.525,349.051 81.625,348.756 82.083 C 348.460 82.542,347.869 83.460,347.443 84.125 C 347.016 84.790,346.340 85.840,345.941 86.458 C 342.306 92.089,340.605 94.789,340.559 95.000 C 340.521 95.169,341.654 95.978,344.043 97.491 C 345.990 98.724,348.333 100.215,349.250 100.804 C 350.883 101.855,352.331 102.784,355.167 104.601 C 355.946 105.100,357.033 105.797,357.583 106.150 C 358.133 106.504,360.608 108.088,363.083 109.672 C 365.558 111.256,368.071 112.869,368.667 113.256 C 377.530 119.022,396.672 131.167,396.896 131.167 C 396.960 131.167,396.990 130.398,396.964 129.458 L 396.917 127.750 395.125 127.703 C 393.471 127.659,393.333 127.630,393.333 127.328 C 393.333 127.022,393.455 127.000,395.167 127.000 L 397.000 127.000 397.000 112.521 L 397.000 98.042 395.458 97.043 C 393.315 95.653,390.024 93.536,384.625 90.074 C 382.632 88.796,380.457 87.399,379.792 86.970 C 379.127 86.541,378.058 85.857,377.417 85.451 C 376.775 85.044,375.313 84.107,374.167 83.369 C 373.021 82.630,371.108 81.405,369.917 80.646 C 368.725 79.888,366.925 78.732,365.917 78.077 C 364.290 77.022,363.206 76.325,358.583 73.363 C 357.942 72.951,357.034 72.364,356.566 72.057 C 355.505 71.362,355.664 71.317,354.878 72.542 " stroke="none" fill="#fcd404" fill-rule="evenodd"></path><path id="path4" d="M211.375 9.453 C 211.627 9.491,212.040 9.491,212.292 9.453 C 212.544 9.415,212.338 9.383,211.833 9.383 C 211.329 9.383,211.123 9.415,211.375 9.453 M216.208 9.453 C 216.460 9.491,216.873 9.491,217.125 9.453 C 217.377 9.415,217.171 9.383,216.667 9.383 C 216.162 9.383,215.956 9.415,216.208 9.453 M116.570 19.500 C 116.570 21.379,116.595 22.148,116.624 21.208 C 116.654 20.269,116.654 18.731,116.624 17.792 C 116.595 16.852,116.570 17.621,116.570 19.500 M172.330 26.792 L 170.750 28.417 172.375 26.837 C 173.884 25.369,174.076 25.167,173.955 25.167 C 173.930 25.167,173.199 25.898,172.330 26.792 M256.000 26.750 C 256.867 27.621,257.614 28.333,257.660 28.333 C 257.706 28.333,257.034 27.621,256.167 26.750 C 255.299 25.879,254.552 25.167,254.507 25.167 C 254.461 25.167,255.133 25.879,256.000 26.750 M2.874 68.615 C 2.852 91.733,2.890 110.682,2.958 110.724 C 3.071 110.794,3.071 82.255,2.957 41.750 C 2.934 33.408,2.897 45.498,2.874 68.615 M116.401 35.333 C 116.401 36.846,116.426 37.465,116.457 36.708 C 116.488 35.952,116.488 34.715,116.457 33.958 C 116.426 33.202,116.401 33.821,116.401 35.333 M116.239 48.833 C 116.239 51.079,116.262 51.998,116.291 50.875 C 116.320 49.752,116.320 47.915,116.291 46.792 C 116.262 45.669,116.239 46.587,116.239 48.833 M289.960 53.451 C 290.168 53.491,290.468 53.490,290.627 53.448 C 290.786 53.406,290.617 53.374,290.250 53.375 C 289.883 53.377,289.753 53.411,289.960 53.451 M295.875 54.115 C 296.035 54.157,296.298 54.157,296.458 54.115 C 296.619 54.073,296.487 54.039,296.167 54.039 C 295.846 54.039,295.715 54.073,295.875 54.115 M297.042 54.282 C 297.202 54.323,297.465 54.323,297.625 54.282 C 297.785 54.240,297.654 54.205,297.333 54.205 C 297.012 54.205,296.881 54.240,297.042 54.282 M302.960 54.951 C 303.168 54.991,303.468 54.990,303.627 54.948 C 303.786 54.906,303.617 54.874,303.250 54.875 C 302.883 54.877,302.753 54.911,302.960 54.951 M116.074 60.000 C 116.074 62.796,116.097 63.940,116.125 62.542 C 116.153 61.144,116.153 58.856,116.125 57.458 C 116.097 56.060,116.074 57.204,116.074 60.000 M308.794 55.618 C 309.001 55.658,309.301 55.656,309.460 55.615 C 309.620 55.573,309.450 55.540,309.083 55.542 C 308.717 55.544,308.586 55.578,308.794 55.618 M314.708 56.282 C 314.869 56.323,315.131 56.323,315.292 56.282 C 315.452 56.240,315.321 56.205,315.000 56.205 C 314.679 56.205,314.548 56.240,314.708 56.282 M321.708 57.115 C 321.869 57.157,322.131 57.157,322.292 57.115 C 322.452 57.073,322.321 57.039,322.000 57.039 C 321.679 57.039,321.548 57.073,321.708 57.115 M327.627 57.785 C 327.834 57.824,328.134 57.823,328.294 57.781 C 328.453 57.739,328.283 57.707,327.917 57.709 C 327.550 57.711,327.420 57.745,327.627 57.785 M283.194 59.424 C 282.914 60.037,282.968 60.167,283.270 59.610 C 283.411 59.350,283.495 59.106,283.457 59.068 C 283.419 59.030,283.300 59.190,283.194 59.424 M155.375 63.583 C 155.377 63.950,155.411 64.080,155.451 63.873 C 155.491 63.666,155.490 63.366,155.448 63.206 C 155.406 63.047,155.374 63.217,155.375 63.583 M273.042 63.750 C 273.044 64.117,273.078 64.247,273.118 64.040 C 273.158 63.832,273.156 63.532,273.115 63.373 C 273.073 63.214,273.040 63.383,273.042 63.750 M155.196 65.960 L 155.167 66.836 135.833 66.793 C 125.200 66.769,116.500 66.806,116.500 66.875 C 116.500 67.130,155.168 67.024,155.266 66.769 C 155.314 66.642,155.325 66.211,155.290 65.811 C 155.226 65.093,155.225 65.095,155.196 65.960 M273.236 68.333 C 273.236 70.029,273.261 70.723,273.291 69.875 C 273.321 69.027,273.321 67.640,273.291 66.792 C 273.261 65.944,273.236 66.637,273.236 68.333 M94.776 66.958 C 94.705 67.072,102.309 67.070,112.250 66.955 C 114.358 66.930,111.307 66.893,105.468 66.872 C 99.630 66.851,94.818 66.890,94.776 66.958 M155.126 102.465 C 155.102 119.617,155.138 133.595,155.205 133.528 C 155.343 133.390,155.395 71.507,155.258 71.369 C 155.209 71.320,155.149 85.313,155.126 102.465 M273.042 72.917 C 273.044 73.283,273.078 73.414,273.118 73.206 C 273.158 72.999,273.156 72.699,273.115 72.540 C 273.073 72.380,273.040 72.550,273.042 72.917 M273.194 81.257 C 272.914 81.870,272.968 82.001,273.270 81.444 C 273.411 81.183,273.495 80.939,273.457 80.901 C 273.419 80.863,273.300 81.023,273.194 81.257 M71.000 82.833 C 71.229 82.907,71.567 82.967,71.750 82.967 C 72.014 82.967,71.997 82.939,71.667 82.833 C 71.438 82.760,71.100 82.700,70.917 82.700 C 70.653 82.700,70.670 82.728,71.000 82.833 M58.573 85.542 L 58.083 86.083 58.625 85.594 C 58.923 85.325,59.167 85.081,59.167 85.052 C 59.167 84.923,59.029 85.037,58.573 85.542 M270.414 87.343 C 270.322 87.630,270.265 87.660,270.151 87.480 C 270.071 87.354,270.005 87.325,270.005 87.417 C 270.005 87.898,270.286 87.987,270.477 87.567 C 270.588 87.323,270.646 87.090,270.605 87.049 C 270.564 87.008,270.478 87.140,270.414 87.343 M269.303 89.512 C 268.632 91.303,268.914 90.940,269.859 88.797 C 269.929 88.639,269.929 88.476,269.861 88.433 C 269.792 88.391,269.541 88.876,269.303 89.512 M52.073 93.208 L 51.583 93.750 52.125 93.260 C 52.630 92.804,52.743 92.667,52.615 92.667 C 52.586 92.667,52.342 92.910,52.073 93.208 M340.284 94.917 C 340.402 95.760,340.442 95.802,340.533 95.183 C 340.573 94.909,340.551 94.719,340.482 94.761 C 340.414 94.803,340.321 94.705,340.275 94.544 C 340.228 94.382,340.233 94.550,340.284 94.917 M266.672 95.323 C 266.574 95.506,266.563 95.686,266.647 95.738 C 266.729 95.788,266.831 95.643,266.874 95.415 C 266.970 94.917,266.905 94.887,266.672 95.323 M90.096 95.833 C 90.157 96.063,90.276 96.362,90.361 96.500 C 90.469 96.674,90.482 96.623,90.404 96.333 C 90.343 96.104,90.224 95.804,90.139 95.667 C 90.031 95.493,90.018 95.544,90.096 95.833 M267.750 96.667 C 268.108 97.033,268.438 97.333,268.484 97.333 C 268.530 97.333,268.275 97.033,267.917 96.667 C 267.559 96.300,267.228 96.000,267.182 96.000 C 267.137 96.000,267.392 96.300,267.750 96.667 M48.505 97.412 C 48.292 97.638,48.043 97.776,47.950 97.719 C 47.850 97.658,47.834 97.699,47.909 97.821 C 48.016 97.994,49.000 97.300,49.000 97.052 C 49.000 96.929,48.868 97.025,48.505 97.412 M340.867 97.917 C 340.867 98.100,340.927 98.438,341.000 98.667 C 341.106 98.997,341.133 99.014,341.133 98.750 C 341.133 98.567,341.073 98.229,341.000 98.000 C 340.894 97.670,340.867 97.653,340.867 97.917 M47.564 98.208 C 47.496 98.323,47.327 98.604,47.187 98.833 L 46.934 99.250 47.356 98.872 C 47.588 98.664,47.778 98.383,47.778 98.247 C 47.778 97.945,47.724 97.936,47.564 98.208 M269.917 98.667 C 270.275 99.033,270.605 99.333,270.651 99.333 C 270.697 99.333,270.441 99.033,270.083 98.667 C 269.725 98.300,269.395 98.000,269.349 98.000 C 269.303 98.000,269.559 98.300,269.917 98.667 M271.826 100.375 C 272.517 101.111,272.667 101.243,272.667 101.118 C 272.667 101.091,272.310 100.735,271.875 100.326 L 271.083 99.583 271.826 100.375 M46.762 101.000 C 46.824 101.229,46.943 101.529,47.028 101.667 C 47.135 101.840,47.149 101.790,47.071 101.500 C 47.010 101.271,46.890 100.971,46.805 100.833 C 46.698 100.660,46.685 100.710,46.762 101.000 M92.262 101.833 C 92.324 102.063,92.443 102.362,92.528 102.500 C 92.635 102.674,92.649 102.623,92.571 102.333 C 92.510 102.104,92.390 101.804,92.305 101.667 C 92.198 101.493,92.185 101.544,92.262 101.833 M273.826 102.208 C 274.517 102.944,274.667 103.077,274.667 102.951 C 274.667 102.925,274.310 102.568,273.875 102.160 L 273.083 101.417 273.826 102.208 M275.667 103.917 C 275.978 104.237,276.270 104.500,276.315 104.500 C 276.361 104.500,276.144 104.237,275.833 103.917 C 275.522 103.596,275.230 103.333,275.185 103.333 C 275.139 103.333,275.356 103.596,275.667 103.917 M277.833 105.917 C 278.144 106.237,278.436 106.500,278.482 106.500 C 278.528 106.500,278.311 106.237,278.000 105.917 C 277.689 105.596,277.397 105.333,277.351 105.333 C 277.305 105.333,277.522 105.596,277.833 105.917 M280.083 108.000 C 280.441 108.367,280.772 108.667,280.818 108.667 C 280.863 108.667,280.608 108.367,280.250 108.000 C 279.892 107.633,279.562 107.333,279.516 107.333 C 279.470 107.333,279.725 107.633,280.083 108.000 M255.997 109.958 L 254.250 111.750 256.042 110.003 C 257.706 108.380,257.909 108.167,257.789 108.167 C 257.764 108.167,256.958 108.973,255.997 109.958 M172.417 110.000 C 173.330 110.917,174.115 111.667,174.160 111.667 C 174.206 111.667,173.497 110.917,172.583 110.000 C 171.670 109.083,170.885 108.333,170.840 108.333 C 170.794 108.333,171.503 109.083,172.417 110.000 M281.826 109.542 C 282.517 110.278,282.667 110.410,282.667 110.285 C 282.667 110.258,282.310 109.902,281.875 109.493 L 281.083 108.750 281.826 109.542 M284.083 111.667 C 284.441 112.033,284.772 112.333,284.818 112.333 C 284.863 112.333,284.608 112.033,284.250 111.667 C 283.892 111.300,283.562 111.000,283.516 111.000 C 283.470 111.000,283.725 111.300,284.083 111.667 M286.083 113.500 C 286.535 113.958,286.942 114.333,286.987 114.333 C 287.033 114.333,286.701 113.958,286.250 113.500 C 285.799 113.042,285.392 112.667,285.346 112.667 C 285.300 112.667,285.632 113.042,286.083 113.500 M90.573 113.542 L 90.083 114.083 90.625 113.594 C 90.923 113.325,91.167 113.081,91.167 113.052 C 91.167 112.923,91.029 113.037,90.573 113.542 M288.083 115.333 C 288.441 115.700,288.772 116.000,288.818 116.000 C 288.863 116.000,288.608 115.700,288.250 115.333 C 287.892 114.967,287.562 114.667,287.516 114.667 C 287.470 114.667,287.725 114.967,288.083 115.333 M290.326 117.375 C 291.017 118.111,291.167 118.243,291.167 118.118 C 291.167 118.091,290.810 117.735,290.375 117.326 L 289.583 116.583 290.326 117.375 M292.000 118.917 C 292.311 119.237,292.603 119.500,292.649 119.500 C 292.695 119.500,292.478 119.237,292.167 118.917 C 291.856 118.596,291.564 118.333,291.518 118.333 C 291.472 118.333,291.689 118.596,292.000 118.917 M294.250 121.000 C 294.608 121.367,294.938 121.667,294.984 121.667 C 295.030 121.667,294.775 121.367,294.417 121.000 C 294.059 120.633,293.728 120.333,293.682 120.333 C 293.637 120.333,293.892 120.633,294.250 121.000 M296.417 123.000 C 296.775 123.367,297.105 123.667,297.151 123.667 C 297.197 123.667,296.941 123.367,296.583 123.000 C 296.225 122.633,295.895 122.333,295.849 122.333 C 295.803 122.333,296.059 122.633,296.417 123.000 M57.000 123.500 C 57.229 123.573,57.567 123.633,57.750 123.633 C 58.014 123.633,57.997 123.606,57.667 123.500 C 57.438 123.427,57.100 123.367,56.917 123.367 C 56.653 123.367,56.670 123.394,57.000 123.500 M298.160 124.542 C 298.850 125.278,299.000 125.410,299.000 125.285 C 299.000 125.258,298.644 124.902,298.208 124.493 L 297.417 123.750 298.160 124.542 M300.326 126.542 C 301.017 127.278,301.167 127.410,301.167 127.285 C 301.167 127.258,300.810 126.902,300.375 126.493 L 299.583 125.750 300.326 126.542 M208.794 127.118 C 209.001 127.158,209.301 127.156,209.460 127.115 C 209.620 127.073,209.450 127.040,209.083 127.042 C 208.717 127.044,208.586 127.078,208.794 127.118 M219.127 127.118 C 219.334 127.158,219.634 127.156,219.794 127.115 C 219.953 127.073,219.783 127.040,219.417 127.042 C 219.050 127.044,218.920 127.078,219.127 127.118 M393.333 127.167 C 393.333 127.273,394.551 127.323,396.708 127.305 C 399.726 127.280,399.898 127.265,398.333 127.159 C 395.610 126.975,393.333 126.978,393.333 127.167 M1.634 127.291 C 2.578 127.321,4.078 127.321,4.967 127.291 C 5.856 127.261,5.083 127.237,3.250 127.237 C 1.417 127.237,0.689 127.261,1.634 127.291 M210.794 127.285 C 211.001 127.324,211.301 127.323,211.460 127.281 C 211.620 127.239,211.450 127.207,211.083 127.209 C 210.717 127.211,210.586 127.245,210.794 127.285 M217.127 127.285 C 217.334 127.324,217.634 127.323,217.794 127.281 C 217.953 127.239,217.783 127.207,217.417 127.209 C 217.050 127.211,216.920 127.245,217.127 127.285 M393.833 127.608 C 395.213 127.730,396.963 127.740,396.891 127.625 C 396.849 127.556,396.012 127.513,395.032 127.528 C 394.052 127.543,393.512 127.579,393.833 127.608 M9.333 133.466 L 9.416 136.917 9.462 133.595 C 9.487 131.769,9.449 130.216,9.379 130.145 C 9.308 130.074,9.287 131.569,9.333 133.466 M390.408 130.213 C 390.363 130.331,390.346 131.887,390.372 133.672 L 390.417 136.917 390.500 133.458 C 390.582 130.069,390.573 129.781,390.408 130.213 " stroke="none" fill="#fb9e98" fill-rule="evenodd"></path><path id="path5" d="M116.699 17.875 C 116.732 21.103,116.793 20.725,116.873 16.791 C 116.897 15.622,116.860 14.666,116.792 14.666 C 116.723 14.667,116.681 16.110,116.699 17.875 M116.571 26.333 C 116.571 28.304,116.595 29.110,116.624 28.125 C 116.654 27.140,116.654 25.527,116.624 24.542 C 116.595 23.556,116.571 24.363,116.571 26.333 M116.400 40.500 C 116.400 41.921,116.426 42.502,116.457 41.792 C 116.488 41.081,116.488 39.919,116.457 39.208 C 116.426 38.498,116.400 39.079,116.400 40.500 M116.237 56.250 C 116.237 58.175,116.262 58.940,116.291 57.949 C 116.321 56.959,116.321 55.384,116.291 54.449 C 116.261 53.515,116.237 54.325,116.237 56.250 M287.627 53.285 C 287.834 53.324,288.134 53.323,288.294 53.281 C 288.453 53.239,288.283 53.207,287.917 53.209 C 287.550 53.211,287.420 53.245,287.627 53.285 M288.875 53.448 C 289.035 53.490,289.298 53.490,289.458 53.448 C 289.619 53.406,289.487 53.372,289.167 53.372 C 288.846 53.372,288.715 53.406,288.875 53.448 M293.542 53.948 C 293.702 53.990,293.965 53.990,294.125 53.948 C 294.285 53.906,294.154 53.872,293.833 53.872 C 293.512 53.872,293.381 53.906,293.542 53.948 M294.794 54.118 C 295.001 54.158,295.301 54.156,295.460 54.115 C 295.620 54.073,295.450 54.040,295.083 54.042 C 294.717 54.044,294.586 54.078,294.794 54.118 M300.627 54.785 C 300.834 54.824,301.134 54.823,301.294 54.781 C 301.453 54.739,301.283 54.707,300.917 54.709 C 300.550 54.711,300.420 54.745,300.627 54.785 M285.194 55.257 C 284.914 55.870,284.968 56.001,285.270 55.444 C 285.411 55.183,285.495 54.939,285.457 54.901 C 285.419 54.863,285.300 55.023,285.194 55.257 M306.460 55.451 C 306.668 55.491,306.968 55.490,307.127 55.448 C 307.286 55.406,307.117 55.374,306.750 55.375 C 306.383 55.377,306.253 55.411,306.460 55.451 M307.708 55.615 C 307.869 55.657,308.131 55.657,308.292 55.615 C 308.452 55.573,308.321 55.539,308.000 55.539 C 307.679 55.539,307.548 55.573,307.708 55.615 M312.294 56.118 C 312.501 56.158,312.801 56.156,312.960 56.115 C 313.120 56.073,312.950 56.040,312.583 56.042 C 312.217 56.044,312.086 56.078,312.294 56.118 M313.627 56.285 C 313.834 56.324,314.134 56.323,314.294 56.281 C 314.453 56.239,314.283 56.207,313.917 56.209 C 313.550 56.211,313.420 56.245,313.627 56.285 M319.460 56.951 C 319.668 56.991,319.968 56.990,320.127 56.948 C 320.286 56.906,320.117 56.874,319.750 56.875 C 319.383 56.877,319.253 56.911,319.460 56.951 M325.125 57.618 C 325.331 57.657,325.669 57.657,325.875 57.618 C 326.081 57.578,325.912 57.545,325.500 57.545 C 325.087 57.545,324.919 57.578,325.125 57.618 M331.127 58.285 C 331.334 58.324,331.634 58.323,331.794 58.281 C 331.953 58.239,331.783 58.207,331.417 58.209 C 331.050 58.211,330.920 58.245,331.127 58.285 M332.417 58.447 C 332.600 58.497,332.812 58.624,332.888 58.728 C 332.979 58.853,333.003 58.832,332.958 58.667 C 332.921 58.529,332.709 58.403,332.487 58.386 C 332.169 58.362,332.154 58.375,332.417 58.447 M281.694 62.924 C 281.414 63.537,281.468 63.667,281.770 63.110 C 281.911 62.850,281.995 62.606,281.957 62.568 C 281.919 62.530,281.800 62.690,281.694 62.924 M333.867 63.750 C 333.867 63.933,333.927 64.271,334.000 64.500 C 334.106 64.830,334.133 64.847,334.133 64.583 C 334.133 64.400,334.073 64.063,334.000 63.833 C 333.894 63.503,333.867 63.486,333.867 63.750 M116.032 65.958 C 116.006 66.787,116.051 67.000,116.250 67.000 C 116.388 67.000,116.500 66.921,116.500 66.823 C 116.500 66.726,116.429 66.691,116.342 66.745 C 116.251 66.801,116.158 66.431,116.123 65.880 L 116.063 64.917 116.032 65.958 M94.708 87.552 C 94.683 99.740,94.606 107.982,94.516 107.926 C 94.432 107.875,94.405 107.988,94.455 108.177 C 94.776 109.409,94.830 106.134,94.792 87.658 L 94.749 67.083 94.708 87.552 M278.860 69.090 C 278.581 69.703,278.634 69.834,278.936 69.277 C 279.077 69.017,279.162 68.773,279.123 68.735 C 279.085 68.696,278.967 68.857,278.860 69.090 M155.209 70.750 C 155.211 71.117,155.245 71.247,155.285 71.040 C 155.324 70.832,155.323 70.532,155.281 70.373 C 155.239 70.214,155.207 70.383,155.209 70.750 M275.194 77.090 C 274.914 77.703,274.968 77.834,275.270 77.277 C 275.411 77.017,275.495 76.773,275.457 76.735 C 275.419 76.696,275.300 76.857,275.194 77.090 M274.527 78.590 C 274.248 79.203,274.301 79.334,274.603 78.777 C 274.744 78.517,274.828 78.273,274.790 78.235 C 274.752 78.196,274.634 78.357,274.527 78.590 M337.512 81.847 C 337.518 82.069,337.591 82.400,337.674 82.583 C 337.780 82.816,337.795 82.715,337.724 82.250 C 337.606 81.476,337.495 81.265,337.512 81.847 M69.500 82.667 C 69.729 82.740,70.104 82.799,70.333 82.797 C 70.708 82.794,70.699 82.781,70.250 82.667 C 69.545 82.487,68.940 82.487,69.500 82.667 M338.178 85.181 C 338.185 85.402,338.258 85.733,338.341 85.917 C 338.446 86.149,338.461 86.048,338.391 85.583 C 338.273 84.809,338.161 84.598,338.178 85.181 M58.406 85.875 L 57.917 86.417 58.458 85.927 C 58.963 85.471,59.077 85.333,58.948 85.333 C 58.919 85.333,58.675 85.577,58.406 85.875 M86.762 86.833 C 86.824 87.063,86.943 87.362,87.028 87.500 C 87.135 87.674,87.149 87.623,87.071 87.333 C 87.010 87.104,86.890 86.804,86.805 86.667 C 86.698 86.493,86.685 86.544,86.762 86.833 M54.740 90.208 L 54.250 90.750 54.792 90.260 C 55.297 89.804,55.410 89.667,55.281 89.667 C 55.252 89.667,55.009 89.910,54.740 90.208 M268.886 90.792 C 268.829 90.952,268.750 91.158,268.712 91.250 C 268.673 91.342,268.760 91.271,268.904 91.093 C 269.166 90.770,269.245 90.500,269.078 90.500 C 269.029 90.500,268.943 90.631,268.886 90.792 M268.273 92.106 C 268.115 92.437,268.022 92.744,268.066 92.789 C 268.111 92.833,268.265 92.587,268.409 92.242 C 268.749 91.429,268.645 91.325,268.273 92.106 M51.991 93.458 L 51.417 94.083 52.042 93.509 C 52.623 92.974,52.743 92.833,52.616 92.833 C 52.588 92.833,52.307 93.115,51.991 93.458 M267.527 93.757 C 267.248 94.370,267.301 94.501,267.603 93.944 C 267.744 93.683,267.828 93.439,267.790 93.401 C 267.752 93.363,267.634 93.523,267.527 93.757 M266.899 95.262 C 266.840 95.498,266.857 95.756,266.937 95.836 C 267.021 95.919,267.089 95.736,267.096 95.407 C 267.111 94.724,267.046 94.676,266.899 95.262 M268.583 97.333 C 268.941 97.700,269.272 98.000,269.318 98.000 C 269.363 98.000,269.108 97.700,268.750 97.333 C 268.392 96.967,268.062 96.667,268.016 96.667 C 267.970 96.667,268.225 96.967,268.583 97.333 M270.326 98.875 C 271.017 99.611,271.167 99.743,271.167 99.618 C 271.167 99.591,270.810 99.235,270.375 98.826 L 269.583 98.083 270.326 98.875 M47.117 99.132 C 46.478 99.786,46.385 100.073,46.674 100.500 C 46.799 100.684,46.815 100.626,46.734 100.279 C 46.642 99.883,46.726 99.703,47.263 99.154 C 47.614 98.794,47.863 98.500,47.818 98.500 C 47.772 98.500,47.457 98.784,47.117 99.132 M341.033 99.250 C 341.033 99.433,341.093 99.771,341.167 100.000 C 341.272 100.330,341.300 100.347,341.300 100.083 C 341.300 99.900,341.240 99.563,341.167 99.333 C 341.061 99.003,341.033 98.986,341.033 99.250 M272.250 100.667 C 272.701 101.125,273.108 101.500,273.154 101.500 C 273.200 101.500,272.868 101.125,272.417 100.667 C 271.965 100.208,271.558 99.833,271.513 99.833 C 271.467 99.833,271.799 100.208,272.250 100.667 M47.929 104.000 C 47.990 104.229,48.110 104.529,48.195 104.667 C 48.302 104.840,48.315 104.790,48.238 104.500 C 48.176 104.271,48.057 103.971,47.972 103.833 C 47.865 103.660,47.851 103.710,47.929 104.000 M276.583 104.667 C 276.941 105.033,277.272 105.333,277.318 105.333 C 277.363 105.333,277.108 105.033,276.750 104.667 C 276.392 104.300,276.062 104.000,276.016 104.000 C 275.970 104.000,276.225 104.300,276.583 104.667 M340.792 104.929 C 340.169 105.267,340.207 105.407,340.833 105.083 C 341.108 104.941,341.333 104.789,341.333 104.746 C 341.333 104.638,341.315 104.645,340.792 104.929 M278.500 106.417 C 278.998 106.921,279.443 107.333,279.489 107.333 C 279.534 107.333,279.165 106.921,278.667 106.417 C 278.169 105.912,277.724 105.500,277.678 105.500 C 277.632 105.500,278.002 105.912,278.500 106.417 M280.500 108.250 C 280.811 108.571,281.103 108.833,281.149 108.833 C 281.195 108.833,280.978 108.571,280.667 108.250 C 280.356 107.929,280.064 107.667,280.018 107.667 C 279.972 107.667,280.189 107.929,280.500 108.250 M94.231 109.046 L 93.917 109.417 94.291 109.100 L 94.665 108.784 94.707 121.183 L 94.750 133.583 124.833 133.584 L 154.917 133.585 124.875 133.542 L 94.833 133.499 94.833 121.176 C 94.833 114.398,94.768 108.813,94.689 108.764 C 94.610 108.715,94.403 108.842,94.231 109.046 M50.096 110.000 C 50.157 110.229,50.276 110.529,50.361 110.667 C 50.469 110.840,50.482 110.790,50.404 110.500 C 50.343 110.271,50.224 109.971,50.139 109.833 C 50.031 109.660,50.018 109.710,50.096 110.000 M282.750 110.333 C 283.108 110.700,283.438 111.000,283.484 111.000 C 283.530 111.000,283.275 110.700,282.917 110.333 C 282.559 109.967,282.228 109.667,282.182 109.667 C 282.137 109.667,282.392 109.967,282.750 110.333 M284.493 111.875 C 285.184 112.611,285.333 112.743,285.333 112.618 C 285.333 112.591,284.977 112.235,284.542 111.826 L 283.750 111.083 284.493 111.875 M286.660 113.875 C 287.068 114.310,287.425 114.667,287.451 114.667 C 287.577 114.667,287.444 114.517,286.708 113.826 L 285.917 113.083 286.660 113.875 M51.596 114.167 C 51.657 114.396,51.776 114.696,51.861 114.833 C 51.969 115.007,51.982 114.956,51.904 114.667 C 51.843 114.438,51.724 114.138,51.639 114.000 C 51.531 113.826,51.518 113.877,51.596 114.167 M288.750 115.833 C 289.201 116.292,289.608 116.667,289.654 116.667 C 289.700 116.667,289.368 116.292,288.917 115.833 C 288.465 115.375,288.058 115.000,288.013 115.000 C 287.967 115.000,288.299 115.375,288.750 115.833 M52.262 116.000 C 52.324 116.229,52.443 116.529,52.528 116.667 C 52.635 116.840,52.649 116.790,52.571 116.500 C 52.510 116.271,52.390 115.971,52.305 115.833 C 52.198 115.660,52.185 115.710,52.262 116.000 M290.750 117.667 C 291.108 118.033,291.438 118.333,291.484 118.333 C 291.530 118.333,291.275 118.033,290.917 117.667 C 290.559 117.300,290.228 117.000,290.182 117.000 C 290.137 117.000,290.392 117.300,290.750 117.667 M292.917 119.667 C 293.275 120.033,293.605 120.333,293.651 120.333 C 293.697 120.333,293.441 120.033,293.083 119.667 C 292.725 119.300,292.395 119.000,292.349 119.000 C 292.303 119.000,292.559 119.300,292.917 119.667 M53.762 120.167 C 53.824 120.396,53.943 120.696,54.028 120.833 C 54.135 121.007,54.149 120.956,54.071 120.667 C 54.010 120.438,53.890 120.138,53.805 120.000 C 53.698 119.826,53.685 119.877,53.762 120.167 M84.240 120.875 L 83.750 121.417 84.292 120.927 C 84.797 120.471,84.910 120.333,84.781 120.333 C 84.752 120.333,84.509 120.577,84.240 120.875 M294.660 121.208 C 295.350 121.944,295.500 122.077,295.500 121.951 C 295.500 121.925,295.144 121.568,294.708 121.160 L 293.917 120.417 294.660 121.208 M54.512 122.296 C 54.615 122.592,54.768 122.876,54.851 122.928 C 54.934 122.979,54.913 122.810,54.803 122.552 C 54.509 121.861,54.294 121.672,54.512 122.296 M296.833 123.250 C 297.144 123.571,297.436 123.833,297.482 123.833 C 297.528 123.833,297.311 123.571,297.000 123.250 C 296.689 122.929,296.397 122.667,296.351 122.667 C 296.305 122.667,296.522 122.929,296.833 123.250 M58.417 123.667 C 59.122 123.846,59.727 123.846,59.167 123.667 C 58.938 123.593,58.563 123.535,58.333 123.536 C 57.959 123.539,57.968 123.552,58.417 123.667 M80.573 125.208 L 80.083 125.750 80.625 125.260 C 81.130 124.804,81.243 124.667,81.115 124.667 C 81.086 124.667,80.842 124.910,80.573 125.208 M298.667 124.885 C 298.667 124.914,298.910 125.158,299.208 125.427 L 299.750 125.917 299.260 125.375 C 298.804 124.870,298.667 124.757,298.667 124.885 M1.634 127.458 C 2.578 127.488,4.078 127.487,4.967 127.457 C 5.856 127.428,5.083 127.403,3.250 127.403 C 1.417 127.404,0.689 127.428,1.634 127.458 M394.958 127.458 C 395.898 127.487,397.435 127.487,398.375 127.458 C 399.315 127.428,398.546 127.404,396.667 127.404 C 394.787 127.404,394.019 127.428,394.958 127.458 M9.237 133.500 C 9.237 135.379,9.261 136.148,9.291 135.208 C 9.321 134.269,9.321 132.731,9.291 131.792 C 9.261 130.852,9.237 131.621,9.237 133.500 M390.570 133.500 C 390.570 135.379,390.595 136.148,390.624 135.208 C 390.654 134.269,390.654 132.731,390.624 131.792 C 390.595 130.852,390.570 131.621,390.570 133.500 " stroke="none" fill="#f47c74" fill-rule="evenodd"></path></g></svg>